<svg xmlns="http://www.w3.org/2000/svg" width="34.033" height="34.033" viewBox="0 0 34.033 34.033"><defs><style>.a{fill:#0c3f6a;}</style></defs><g transform="translate(0 0)"><g transform="translate(0 0)"><path class="a" d="M29.047,0a4.985,4.985,0,0,0-1,9.87v5.152a1,1,0,0,1-1,1h-9.04V9.87a4.985,4.985,0,1,0-1.994,0v6.149H5.982V9.87a4.985,4.985,0,1,0-1.994,0V24.163a4.985,4.985,0,1,0,1.994,0V18.013H16.019v6.149a4.985,4.985,0,1,0,1.994,0V18.013h9.04a3,3,0,0,0,2.991-2.991V9.87a4.985,4.985,0,0,0-1-9.87ZM7.976,29.047a2.991,2.991,0,1,1-2.991-2.991A2.995,2.995,0,0,1,7.976,29.047ZM4.985,7.976A2.991,2.991,0,1,1,7.976,4.985,2.995,2.995,0,0,1,4.985,7.976ZM20.008,29.047a2.991,2.991,0,1,1-2.991-2.991A2.995,2.995,0,0,1,20.008,29.047ZM17.016,7.976a2.991,2.991,0,1,1,2.991-2.991A2.995,2.995,0,0,1,17.016,7.976Zm12.031,0a2.991,2.991,0,1,1,2.991-2.991A2.995,2.995,0,0,1,29.047,7.976Z"/></g></g></svg>