<svg xmlns="http://www.w3.org/2000/svg" width="44.954" height="31.608" viewBox="0 0 44.954 31.608"><defs><style>.a{fill:#0c3f6a;}</style></defs><g transform="translate(0 0)"><g transform="translate(10.322 21.288)"><g transform="translate(0 0)"><ellipse class="a" cx="1.613" cy="1.29" rx="1.613" ry="1.29"/></g></g><g transform="translate(18.708 21.288)"><g transform="translate(0 0)"><circle class="a" cx="1.29" cy="1.29" r="1.29"/></g></g><g transform="translate(26.449 21.288)"><g transform="translate(0 0)"><circle class="a" cx="1.29" cy="1.29" r="1.29"/></g></g><g transform="translate(0 0)"><g transform="translate(0 0)"><path class="a" d="M43.637,86.536H41a1.317,1.317,0,0,0-.931.386L37.823,89.17H34.33V87.853a1.317,1.317,0,0,0-1.317-1.317H26.428V83.9h1.317a1.317,1.317,0,0,0,1.317-1.317V78.634h1.317a1.317,1.317,0,0,0,0-2.634H9.307a1.317,1.317,0,0,0,0,2.634h1.317v3.951A1.317,1.317,0,0,0,11.941,83.9h1.317v2.634H6.673a1.317,1.317,0,0,0-1.317,1.317V89.17H2.634V87.853a1.317,1.317,0,0,0-2.634,0v15.8a1.317,1.317,0,0,0,2.634,0V102.34H6.127l4.882,4.882a1.317,1.317,0,0,0,.931.386H33.013a1.317,1.317,0,0,0,1.317-1.317v-1.317h3.493l2.248,2.248a1.317,1.317,0,0,0,.931.386h2.634a1.317,1.317,0,0,0,1.317-1.317V87.853A1.317,1.317,0,0,0,43.637,86.536ZM5.356,99.706H2.634V91.8H5.356Zm7.9-21.072h13.17v2.634H13.258ZM23.794,83.9v2.634h-7.9V83.9Zm7.9,19.755v1.317H12.486l-4.5-4.5v-6.04H31.7Zm0-11.853H7.99V89.17H31.7Zm5.356,10.536H34.33V91.8h2.722Zm5.268,2.634h-.771l-1.863-1.863V91.033l1.863-1.863h.771Z" transform="translate(0 -76)"/></g></g></g></svg>