<svg xmlns="http://www.w3.org/2000/svg" width="46.879" height="46.882" viewBox="0 0 46.879 46.882"><defs><style>.a{fill:#0c3f6a;}</style></defs><g transform="translate(-0.016)"><g transform="translate(0.016 11.72)"><path class="a" d="M45.43,136.79a1.466,1.466,0,0,0-1.465,1.465v16.589l-11.72,4.688V144.115a1.465,1.465,0,0,0-2.93,0v15.414L17.6,154.841V131.63l6.789,2.716a1.465,1.465,0,0,0,1.087-2.722l-8.769-3.51h0l-.023-.009a1.453,1.453,0,0,0-1.087,0l-.026.009h0L.936,133.965a1.465,1.465,0,0,0-.92,1.359v26.37a1.464,1.464,0,0,0,2.01,1.359l14.1-5.64,14.078,5.631h0l.026.012a1.453,1.453,0,0,0,1.087,0l.026-.012h0L45.978,157.2a1.474,1.474,0,0,0,.917-1.362v-17.58A1.466,1.466,0,0,0,45.43,136.79ZM14.666,154.841l-11.72,4.688V136.315l11.72-4.688Z" transform="translate(-0.016 -128)"/></g><g transform="translate(32.245 5.86)"><path class="a" d="M356.411,64a4.395,4.395,0,1,0,4.395,4.395A4.4,4.4,0,0,0,356.411,64Zm0,5.86a1.465,1.465,0,1,1,1.465-1.465A1.466,1.466,0,0,1,356.411,69.86Z" transform="translate(-352.016 -64)"/></g><g transform="translate(26.386)"><path class="a" d="M298.271,0a10.266,10.266,0,0,0-10.255,10.255c0,5.262,8.227,14.582,9.165,15.628a1.464,1.464,0,0,0,2.18,0c.938-1.046,9.165-10.366,9.165-15.628A10.266,10.266,0,0,0,298.271,0Zm0,22.669c-3.2-3.794-7.325-9.619-7.325-12.414a7.325,7.325,0,0,1,14.65,0C305.6,13.047,301.47,18.875,298.271,22.669Z" transform="translate(-288.016)"/></g></g></svg>