<svg xmlns="http://www.w3.org/2000/svg" width="37.695" height="37.69" viewBox="0 0 37.695 37.69"><defs><style>.a{fill:#0c3f6a;}</style></defs><g transform="translate(0 -0.001)"><g transform="translate(0 0.001)"><path class="a" d="M32.1.031H23.188A3.291,3.291,0,0,0,20.846,1L17.077,4.77a3.3,3.3,0,0,0-1.429-.322A15.666,15.666,0,0,0,0,20.1v7.54a3.318,3.318,0,0,0,2.208,3.123v5.858a1.1,1.1,0,0,0,1.1,1.1H7.729a1.1,1.1,0,0,0,1.1-1.1V30.759a3.328,3.328,0,0,0,2.019-2.019h5.711a5.527,5.527,0,0,0,5.521-5.521V10.884a3.3,3.3,0,0,0-.322-1.429l2.8-2.8H32.1a1.1,1.1,0,0,0,1.1-1.1V1.135A1.1,1.1,0,0,0,32.1.031ZM6.625,35.513H4.417V30.949H6.625v4.564Zm13.25-12.293a3.316,3.316,0,0,1-3.313,3.313H11.042V19.907H13.25v1.1a3.316,3.316,0,0,0,3.313,3.313,1.1,1.1,0,1,0,0-2.208,1.105,1.105,0,0,1-1.1-1.1v-1.1h4.417v3.313Zm0-5.521H9.938a1.1,1.1,0,0,0-1.1,1.1v8.834a1.105,1.105,0,0,1-1.1,1.1H3.313a1.105,1.105,0,0,1-1.1-1.1V20.1a13.455,13.455,0,0,1,13.44-13.44,1.1,1.1,0,0,1,.781.323L19.552,10.1a1.1,1.1,0,0,1,.323.781ZM30.991,4.448H24.1a1.1,1.1,0,0,0-.781.323L20.333,7.76,18.772,6.2l3.636-3.636a1.112,1.112,0,0,1,.781-.324h7.8V4.448Z" transform="translate(0 -0.031)"/></g><g transform="translate(26.644 11.043)"><path class="a" d="M372.319,157.4l-.022-.04-3.916-6.789a1.1,1.1,0,0,0-1.913,0l-3.916,6.789-.022.04a5.522,5.522,0,1,0,9.789,0Zm-4.895,5.869a3.318,3.318,0,0,1-2.947-4.826l2.947-5.11,2.948,5.11A3.318,3.318,0,0,1,367.424,163.264Z" transform="translate(-361.899 -150.014)"/></g><g transform="translate(11.042 8.834)"><path class="a" d="M153.295,120.017h-2.208a1.1,1.1,0,1,0,0,2.208h2.208a1.1,1.1,0,1,0,0-2.208Z" transform="translate(-149.982 -120.017)"/></g><g transform="translate(11.042 13.251)"><path class="a" d="M153.295,180.01h-2.208a1.1,1.1,0,1,0,0,2.208h2.208a1.1,1.1,0,1,0,0-2.208Z" transform="translate(-149.982 -180.01)"/></g></g></svg>