<svg xmlns="http://www.w3.org/2000/svg" width="228.535" height="142.931" viewBox="0 0 228.535 142.931"><defs><style>.a{fill:#fff;}.b{fill:#f8f8f8;}.c{fill:#e22427;}</style></defs><g transform="translate(-1177.826 -306.029)"><g transform="translate(1177.826 306.029)"><g transform="translate(0 0)"><path class="a" d="M18.487,38.2a9.987,9.987,0,0,0,0,19.973,9.987,9.987,0,0,0,0-19.973Zm0,13.107a3.121,3.121,0,1,1,0-6.242,2.948,2.948,0,0,1,3.121,3.121A3.127,3.127,0,0,1,18.487,51.307Z" transform="translate(18.027 33.267)"/><path class="a" d="M55.087,38.2a9.987,9.987,0,1,0,9.987,9.987A9.859,9.859,0,0,0,55.087,38.2Zm0,13.107a3.121,3.121,0,1,1,3.121-3.121A3.127,3.127,0,0,1,55.087,51.307Z" transform="translate(95.649 33.267)"/><path class="a" d="M191.306,45.26h-1.872c-2.185-13.107-16.54-29.96-37.45-29.96H81.141c-18.725,0-34.953,28.4-39.01,36.2H24.03A24.04,24.04,0,0,0,0,75.532V93.008a6.927,6.927,0,0,0,6.866,6.866h7.178a22.722,22.722,0,0,0,44.94,0h69.282a22.722,22.722,0,0,0,44.94,0h9.675a6.927,6.927,0,0,0,6.866-6.866V76.78h1.56a8.391,8.391,0,0,0,8.426-8.426V53.686A8.391,8.391,0,0,0,191.306,45.26Zm-154.793,67.1A15.916,15.916,0,1,1,52.43,96.441,15.784,15.784,0,0,1,36.514,112.358Zm114.222,0a15.916,15.916,0,1,1,15.916-15.916A15.784,15.784,0,0,1,150.736,112.358ZM182.88,93.321h-9.675a22.722,22.722,0,0,0-44.94,0H58.984a22.722,22.722,0,0,0-44.94,0H6.866V75.844A17.317,17.317,0,0,1,24.03,58.679H44a3.432,3.432,0,0,0,3.121-1.872C51.806,47.132,67.1,22.478,81.141,22.478h70.531c19.349,0,30.9,17.165,30.9,26.527V93.321Zm9.987-24.967a1.474,1.474,0,0,1-1.56,1.56h-1.56V52.126h1.56a1.474,1.474,0,0,1,1.56,1.56Z" transform="translate(0 -15.3)"/><path class="a" d="M72.484,19.9H49.39c-9.05,0-17.789,4.369-22.47,11.859l-7.8,11.859a3.381,3.381,0,0,0,0,3.433,3.433,3.433,0,0,0,3.121,1.872H72.484a3.463,3.463,0,0,0,3.433-3.433V23.333A3.463,3.463,0,0,0,72.484,19.9ZM69.051,42.058H28.481L32.85,35.5a19.7,19.7,0,0,1,16.54-8.738H69.051Z" transform="translate(39.553 -5.544)"/><path class="a" d="M62.494,19.9H42.833A3.463,3.463,0,0,0,39.4,23.333V45.491a3.463,3.463,0,0,0,3.433,3.433H86.212a3.463,3.463,0,0,0,3.433-3.433C89.957,31.447,77.786,19.9,62.494,19.9ZM46.578,42.058V26.766H62.806c9.987,0,18.413,6.554,19.973,15.292Z" transform="translate(83.56 -5.544)"/></g></g><g transform="translate(1313 355.599)"><rect class="b" width="88.849" height="91.149" rx="10" transform="translate(1.786 0.879)"/><path class="c" d="M81.376,1.75H15.48A13.746,13.746,0,0,0,1.75,15.48v65.9a13.746,13.746,0,0,0,13.73,13.73h65.9a13.746,13.746,0,0,0,13.73-13.73V15.48A13.75,13.75,0,0,0,81.376,1.75Zm8.238,79.626a8.247,8.247,0,0,1-8.238,8.238H15.48a8.247,8.247,0,0,1-8.238-8.238V71.444L29.4,46.821l29.933,27.21L75.889,60.237l13.73,11.44v9.7Zm0-16.845-13.73-11.44-16.4,13.662L29.015,39.047,7.242,63.238V15.48A8.247,8.247,0,0,1,15.48,7.242h65.9a8.247,8.247,0,0,1,8.238,8.238V64.531Z" transform="translate(-1.75 -1.75)"/><path class="c" d="M26.936,32.225a13.73,13.73,0,1,0-13.73-13.73A13.746,13.746,0,0,0,26.936,32.225Zm0-21.964A8.238,8.238,0,1,1,18.7,18.5,8.247,8.247,0,0,1,26.936,10.261Z" transform="translate(38.964 8.962)"/></g></g></svg>